# xmcd
#
# Track frame offsets:
#	150
#	9263
#	23267
#	47431
#	58762
#	89521
#	113035
#	144906
#	177114
#	210653
#	241083
#	272186
#	308295
#
# Disc length: 4432 seconds
#
# Revision: 1
# Processed by: cddbd v1.5.2PL0 Copyright (c) Steve Scherf et al.
# Submitted via: EZCDAudioConverter 2.1.7.1
#
DISCID=95114e0d
DTITLE=V/A - OHM 3/3
DYEAR=1900
DGENRE=
TTITLE0=Charles Dodge - He Destroyed Her Image
TTITLE1=Paul Lansky - Six Fantasies On A Poem By Thomas Campion: Her Song
TTITLE2=Laurie Spiegel - Appalachian Grove I
TTITLE3=Bernard Parmegiani - En Phase/Hors Phase
TTITLE4=David Behrman - On The Other Ocean [Edit]
TTITLE5=John Chowning - Stria [Edit]
TTITLE6=Maryanne Amacher - Living Sound, Patent Pending: Music For Sound-Joine
TTITLE6=d Rooms Series [Edit]
TTITLE7=Robert Ashley - Automatic Writing [Edit]
TTITLE8=Alvin Curran - Canti Illuminati [Edit]
TTITLE9=Alvin Lucier - Music On A Long Thin Wire [Edit]
TTITLE10=Klaus Schulze - Melange
TTITLE11=Jon Hassell - Before And After Charm (La Notte)
TTITLE12=Brian Eno - Unfamiliar Wind (Leeks Hills)
EXTD=
EXTT0=
EXTT1=
EXTT2=
EXTT3=
EXTT4=
EXTT5=
EXTT6=
EXTT7=
EXTT8=
EXTT9=
EXTT10=
EXTT11=
EXTT12=
PLAYORDER=
